<?xml version="1.0" encoding="utf-8"?>
<svg xmlns="http://www.w3.org/2000/svg" viewBox="221 232 138 104">
<path fill="#00B4FF" d="M354.1,318.2c-1-0.4-1.7-1.3-1.7-2.4v-32.4v-32.4c0-1.1,0.7-2,1.7-2.4c3.7-1.5,6.2-5.4,5.4-9.8
  c-0.6-3.5-3.4-6.5-6.9-7.2c-5.8-1.2-10.9,3.2-10.9,8.7c0,1.2,0.3,2.4,0.7,3.5c0.4,1,0.3,2.1-0.5,2.8l-28,28
  c-0.7,0.7-1.8,0.9-2.8,0.5c-1-0.4-2.2-0.7-3.4-0.7c-1.3,0-2.5,0.3-3.6,0.8c-1,0.4-2.1,0.3-2.9-0.5l-28.1-28.1
  c-0.7-0.7-0.9-1.8-0.5-2.7c0.6-1.4,0.9-3.1,0.7-4.8c-0.5-4-3.8-7.2-7.8-7.7c-5.4-0.6-10,3.6-10,8.9c0,3.8,2.3,7,5.7,8.3
  c0.9,0.4,1.6,1.2,1.6,2.2v21.9c0,1-0.7,1.9-1.6,2.2c-3.4,1.3-5.9,4.5-5.9,8.4s2.4,7.1,5.9,8.4c1,0.4,1.6,1.2,1.6,2.2V316
  c0,1-0.6,1.8-1.6,2.2c-3.3,1.3-5.7,4.5-5.7,8.3c0,5.3,4.6,9.5,10,8.9c4-0.5,7.3-3.7,7.8-7.7c0.2-1.7,0-3.4-0.7-4.8
  c-0.4-0.9-0.2-2,0.5-2.7l28.1-28.1c0.8-0.8,1.9-0.9,2.9-0.5c1.1,0.5,2.3,0.8,3.6,0.8c1.2,0,2.3-0.2,3.4-0.7c0.9-0.4,2-0.2,2.8,0.5
  l28,28c0.7,0.7,0.9,1.9,0.5,2.8c-0.5,1.1-0.7,2.2-0.7,3.5c0,5.6,5.1,10,10.9,8.7c3.5-0.7,6.3-3.7,6.9-7.2
  C360.2,323.6,357.8,319.7,354.1,318.2z M266.3,251.1c0-1.1,0.7-2,1.7-2.4c0,0,0,0,0,0c1-0.4,2.1-0.3,2.9,0.5l28.2,28.2
  c0.7,0.7,0.8,1.8,0.5,2.7c0,0,0,0,0,0c-0.4,0.9-1.2,1.5-2.2,1.5l-22.5,0c-1,0-1.8-0.6-2.2-1.5c-0.9-2.2-2.6-3.9-4.8-4.9
  c-0.9-0.4-1.5-1.2-1.5-2.2V251.1z M299.1,289.5L271,317.7c-0.8,0.8-1.9,0.9-2.9,0.5c0,0,0,0,0,0c-1-0.4-1.7-1.3-1.7-2.4v-21.9
  c0-1,0.6-1.8,1.5-2.2c2.2-0.9,3.9-2.7,4.8-4.9c0.4-0.9,1.2-1.5,2.2-1.5l22.5,0c1,0,1.8,0.6,2.2,1.5c0,0,0,0,0,0
  C300,287.8,299.8,288.8,299.1,289.5z M349,315.8c0,1.1-0.7,2-1.7,2.4c0,0,0,0,0,0c-1-0.4-2.1-0.3-2.9-0.5l-27.8-27.8
  c-0.8-0.8-0.9-1.9-0.5-2.9c0.5-1.1,0.7-2.3,0.7-3.6s-0.3-2.5-0.7-3.6c-0.4-1-0.3-2.1,0.5-2.9l27.8-27.8c0.8-0.8,1.9-0.9,2.9-0.5
  c0,0,0,0,0,0c1,0.4,1.7,1.3,1.7,2.4v32.3V315.8z"/>
</svg>
