<?xml version="1.0" encoding="utf-8"?>
<!-- Generator: Adobe Illustrator 22.1.0, SVG Export Plug-In . SVG Version: 6.00 Build 0)  -->
<svg version="1.1" id="Laag_1" xmlns="http://www.w3.org/2000/svg" xmlns:xlink="http://www.w3.org/1999/xlink" x="0px" y="0px"
	 viewBox="200 230 470 110" fill="currentColor" xml:space="preserve">
<style type="text/css">
	.st0{fill:#00B4FF;}
</style>
<g>
	<g>
		<path d="M387,259.2v12c0,1.5,0.3,5,5.2,3.4l0.3,2.8c-1.4,0.7-2.8,0.7-3.2,0.7c-1,0-6.1,0.5-6.1-6.8v-12.2h-3v-3.1h3v-5.5h3.8v5.5
			h9.1v-8.4h3.8v11.5c1.3-2.9,4.6-3.6,6.8-3.6c5.1,0,8.1,2.6,8.1,9.3v12.7H411V265c0-3.5-1.2-6.2-4.8-6.2c-1.6,0-6.2,0.8-6.2,6v12.8
			h-3.8v-18.4H387z"/>
		<path d="M419.1,266.9c0-6.5,3.8-11.3,10.2-11.3c6.7,0,10.8,4.8,10.1,12.7h-16.4c0,3.9,2.7,6.7,7.2,6.7c1.3,0,2.9,0.2,6.6-1.4
			l1.2,2.8c-1.4,0.8-4.3,1.8-8.2,1.8C423.8,278.2,419.1,274,419.1,266.9z M423,265.2h12.6c-0.2-4.1-2.7-6.4-6.4-6.4
			C425.6,258.8,423,262.1,423,265.2z"/>
		<path d="M459.8,259.2c0.9-2.6,4-3.6,6.1-3.6c5.8,0,10,3.6,10,11.3c0,7.7-4.2,11.2-9.9,11.2c-0.4,0-4.7,0-6.4-2.9v2.4H456v-29.9
			h3.8V259.2z M459.8,263.3v6.9c0,4.3,4.1,4.8,6.2,4.8c4.4,0,5.9-4,5.9-8.1c0-4.3-1.3-8.1-6.7-8.1C464,258.8,460.2,260,459.8,263.3z
			"/>
		<path d="M480.2,247.7h3.8v3.9h-3.8V247.7z M480.2,256.2h3.8v21.5h-3.8V256.2z"/>
		<path d="M504.5,275.2c-1,2.2-4,2.9-6.1,2.9c-5.8,0-10-3.6-10-11.2c0-7.6,4.2-11.3,9.9-11.3c0.4,0,4.7,0,6.4,3.6v-3h3.8v23.4
			c0,5.4-4.9,7-9.6,7c-3.3,0-6.6-0.8-7.8-1.7l0.9-2.7c2.4,1.4,5.5,1.5,6.5,1.5c5.9,0,6.1-2.8,6.1-4.7L504.5,275.2z M504.5,271v-7.4
			c0-4.3-4.1-4.8-6.2-4.8c-4.4,0-5.9,4.1-5.9,8.1c0,4.3,1.3,8.1,6.7,8.1C500.3,275,504.5,274.2,504.5,271z"/>
		<path d="M541,247.7h3.8v29.9h-3.8v-2.4c-1.6,3-5.9,2.9-6.4,2.9c-5.6,0-9.9-3.6-9.9-11.2c0-7.6,4.2-11.3,10-11.3
			c2.1,0,5.2,1,6.1,3.6V247.7z M528.9,266.9c0,4.1,1.5,8.1,5.9,8.1c2.1,0,6.2-0.5,6.2-4.8v-6.9c-0.4-3.3-4.2-4.5-5.4-4.5
			C530.2,258.8,528.9,262.6,528.9,266.9z"/>
		<path d="M562.7,277.7v-2.4c-2,2.6-4.8,2.9-6,2.9c-4.3,0-7.9-2.2-7.9-6.5c0-5.5,5.5-7.3,14-7.8v-1.3c0-0.2,0.3-3.9-5.1-3.9
			c-3.2,0-4.8,0.9-6.3,1.7l-1.1-2.7c0,0,3-2.1,7.6-2.1c1.6,0,3.1,0.2,4.4,0.7c2.2,0.8,4.4,2.4,4.4,6.1v15.2H562.7z M562.8,270.5
			v-3.8c-6.4,0.4-10.6,2-10.4,4.9c0.1,2.3,1.9,3.5,4.4,3.5C557.8,275,562.8,274.6,562.8,270.5z"/>
		<path d="M569.6,259.2v-3.1h3v-5.5h3.8v5.5h5v3.1h-5v12c0,1.5,0.3,5,5.2,3.4l0.3,2.8c-1.4,0.7-2.8,0.7-3.2,0.7
			c-1,0-6.1,0.5-6.1-6.8v-12.2H569.6z"/>
		<path d="M598.1,277.7v-2.4c-2,2.6-4.8,2.9-6,2.9c-4.3,0-7.9-2.2-7.9-6.5c0-5.5,5.5-7.3,14-7.8v-1.3c0-0.2,0.3-3.9-5.1-3.9
			c-3.2,0-4.8,0.9-6.3,1.7l-1.1-2.7c0,0,3-2.1,7.6-2.1c1.6,0,3.1,0.2,4.4,0.7c2.2,0.8,4.4,2.4,4.4,6.1v15.2H598.1z M598.2,270.5
			v-3.8c-6.4,0.4-10.6,2-10.4,4.9c0.1,2.3,1.9,3.5,4.4,3.5C593.2,275,598.2,274.6,598.2,270.5z"/>
		<path d="M392.1,293.2c2.2,0,4.9,0.4,6.4,1.2l-0.8,2.9c-2.1-0.8-3.7-0.8-4.7-0.8c-5.6,0-7.9,3.8-7.9,8c0,4.2,2.3,8.1,7.9,8.1
			c1,0,2.6-0.1,4.7-0.9l0.8,2.9c-1.5,0.8-4.2,1.2-6.4,1.2c-6.8,0-10.8-4.2-10.8-11.3C381.3,297.4,385.3,293.2,392.1,293.2z"/>
		<path d="M411.7,293.2c6.4,0,10.4,4.2,10.4,11.3c0,7.1-4,11.3-10.4,11.3c-6.4,0-10.4-4.2-10.4-11.3
			C401.3,297.4,405.2,293.2,411.7,293.2z M411.7,296.3c-4.4,0-6.6,4-6.6,8.2c0,4.1,2.2,8.3,6.6,8.3c4.3,0,6.6-4.1,6.6-8.3
			C418.3,300.4,415.9,296.3,411.7,296.3z"/>
		<path d="M439.9,301.9c0-2.7-0.9-5.6-4.8-5.6c-2.1,0-5,1.3-5,6.6v12.3h-3.8v-21.5h3.6v4c1.1-3.6,4.2-4.5,6.5-4.5
			c2.6,0,5.4,1,6.6,3.6c1-2.4,3.4-3.6,6.3-3.6c4.2,0,8.1,1.7,8.1,8.7v13.4h-3.8v-12.7c0-4.1-1.2-6.2-4.8-6.2c-0.8,0-5,0.2-5,5.5
			v13.4h-3.7L439.9,301.9z"/>
		<path d="M466.4,324.1h-3.8v-30.4h3.8l0,3.1c1.6-3,4.6-3.6,7-3.6c5.6,0,9.2,3.6,9.2,11.2s-4.2,11.4-10,11.4c-2.2,0-5.2-0.9-6.1-3.1
			V324.1z M478.5,304.5c0-4.1-1.5-8.1-5.9-8.1c-2.1,0-6.2,1.4-6.2,5.6v6.5c0,3.3,4.2,4.1,5.4,4.1
			C477.2,312.7,478.5,308.7,478.5,304.5z"/>
		<path d="M499.3,315.3v-2.4c-2,2.6-4.8,2.9-6,2.9c-4.3,0-7.9-2.2-7.9-6.5c0-5.5,5.5-7.3,14-7.8v-1.3c0-0.2,0.3-3.9-5.1-3.9
			c-3.2,0-4.8,0.9-6.3,1.7l-1.1-2.7c0,0,3-2.1,7.6-2.1c1.6,0,3.1,0.2,4.4,0.7c2.2,0.8,4.4,2.4,4.4,6.1v15.2H499.3z M499.5,308.1
			v-3.8c-6.4,0.4-10.6,2-10.4,4.9c0.1,2.3,1.9,3.5,4.4,3.5C494.5,312.6,499.5,312.2,499.5,308.1z"/>
		<path d="M526.9,315.3h-3.8v-12.6c0-3.7-1.2-6.3-4.8-6.3c-1.6,0-6.2,0.8-6.2,6.1v12.8h-3.8v-21.5h3.6v4c1.3-3.7,4.6-4.5,6.6-4.5
			c5,0,8.6,2.3,8.6,9.4V315.3z"/>
		<path d="M533.4,320.6c0.7,0.4,1.3,0.3,2,0.3c1.9,0,2.6-1.7,2.6-1.7l1.5-3.7l-9.7-21.7h4l7.4,17.6l7.2-17.6h4l-11.5,27
			c-1.3,3.1-4.3,3.4-5.4,3.4c-0.8,0-1.7-0.2-2.6-0.5L533.4,320.6z"/>
	</g>
	<path class="st0" d="M354.1,318.2c-1-0.4-1.7-1.3-1.7-2.4v-32.4v-32.4c0-1.1,0.7-2,1.7-2.4c3.7-1.5,6.2-5.4,5.4-9.8
		c-0.6-3.5-3.4-6.5-6.9-7.2c-5.8-1.2-10.9,3.2-10.9,8.7c0,1.2,0.3,2.4,0.7,3.5c0.4,1,0.3,2.1-0.5,2.8l-28,28
		c-0.7,0.7-1.8,0.9-2.8,0.5c-1-0.4-2.2-0.7-3.4-0.7c-1.3,0-2.5,0.3-3.6,0.8c-1,0.4-2.1,0.3-2.9-0.5l-28.1-28.1
		c-0.7-0.7-0.9-1.8-0.5-2.7c0.6-1.4,0.9-3.1,0.7-4.8c-0.5-4-3.8-7.2-7.8-7.7c-5.4-0.6-10,3.6-10,8.9c0,3.8,2.3,7,5.7,8.3
		c0.9,0.4,1.6,1.2,1.6,2.2v21.9c0,1-0.7,1.9-1.6,2.2c-3.4,1.3-5.9,4.5-5.9,8.4s2.4,7.1,5.9,8.4c1,0.4,1.6,1.2,1.6,2.2V316
		c0,1-0.6,1.8-1.6,2.2c-3.3,1.3-5.7,4.5-5.7,8.3c0,5.3,4.6,9.5,10,8.9c4-0.5,7.3-3.7,7.8-7.7c0.2-1.7,0-3.4-0.7-4.8
		c-0.4-0.9-0.2-2,0.5-2.7l28.1-28.1c0.8-0.8,1.9-0.9,2.9-0.5c1.1,0.5,2.3,0.8,3.6,0.8c1.2,0,2.3-0.2,3.4-0.7c0.9-0.4,2-0.2,2.8,0.5
		l28,28c0.7,0.7,0.9,1.9,0.5,2.8c-0.5,1.1-0.7,2.2-0.7,3.5c0,5.6,5.1,10,10.9,8.7c3.5-0.7,6.3-3.7,6.9-7.2
		C360.2,323.6,357.8,319.7,354.1,318.2z M266.3,251.1c0-1.1,0.7-2,1.7-2.4c0,0,0,0,0,0c1-0.4,2.1-0.3,2.9,0.5l28.2,28.2
		c0.7,0.7,0.8,1.8,0.5,2.7c0,0,0,0,0,0c-0.4,0.9-1.2,1.5-2.2,1.5l-22.5,0c-1,0-1.8-0.6-2.2-1.5c-0.9-2.2-2.6-3.9-4.8-4.9
		c-0.9-0.4-1.5-1.2-1.5-2.2V251.1z M299.1,289.5L271,317.7c-0.8,0.8-1.9,0.9-2.9,0.5c0,0,0,0,0,0c-1-0.4-1.7-1.3-1.7-2.4v-21.9
		c0-1,0.6-1.8,1.5-2.2c2.2-0.9,3.9-2.7,4.8-4.9c0.4-0.9,1.2-1.5,2.2-1.5l22.5,0c1,0,1.8,0.6,2.2,1.5c0,0,0,0,0,0
		C300,287.8,299.8,288.8,299.1,289.5z M349,315.8c0,1.1-0.7,2-1.7,2.4c0,0,0,0,0,0c-1,0.4-2.1,0.3-2.9-0.5l-27.8-27.8
		c-0.8-0.8-0.9-1.9-0.5-2.9c0.5-1.1,0.7-2.3,0.7-3.6s-0.3-2.5-0.7-3.6c-0.4-1-0.3-2.1,0.5-2.9l27.8-27.8c0.8-0.8,1.9-0.9,2.9-0.5
		c0,0,0,0,0,0c1,0.4,1.7,1.3,1.7,2.4v32.3V315.8z"/>
</g>
</svg>
